<svg width="210" height="95" viewBox="0 0 210 95" fill="none" xmlns="http://www.w3.org/2000/svg">
<path fill-rule="evenodd" clip-rule="evenodd" d="M114.854 35.0782C114.79 36.538 114.03 38.1712 113.48 39.5107C113.045 40.6581 112.635 41.804 112.303 42.986C112.222 43.2733 112.143 43.5598 112.068 43.8463C110.935 48.5328 110.29 53.3689 110.151 58.1845C110.149 58.6811 110.153 59.1761 110.163 59.6726C110.193 61.2594 110.37 62.8024 110.54 64.3737C110.671 65.3745 110.804 66.4517 110.691 67.4521C110.646 68.1042 110.519 68.7445 110.225 69.3337C109.68 70.4233 108.689 71.0674 107.581 71.5039C105.822 72.1964 103.603 72.4563 101.73 72.6089C99.5104 72.7896 97.2594 72.7172 95.0544 72.424C92.8513 72.154 90.6612 71.6602 88.5656 70.9304C86.7914 70.3131 84.7096 69.5049 83.1833 68.3943C82.2213 67.6938 81.424 66.8223 81.1736 65.631C81.0384 64.9884 81.0775 64.3314 81.1986 63.6966C81.3438 62.6936 81.7434 61.6873 82.1243 60.7567C82.6865 59.2741 83.2491 57.8261 83.6794 56.2972C83.815 55.819 83.9444 55.3407 84.0679 54.8629C85.155 50.1619 85.7556 45.3177 85.8455 40.4985C85.8443 40.2027 85.8407 39.9082 85.8354 39.6122C85.8128 38.3886 85.7071 37.1794 85.5773 35.967C85.3837 34.5264 85.0601 32.7503 85.3684 31.3194C85.4383 30.8446 85.5654 30.3821 85.7811 29.951C86.3262 28.862 87.3187 28.2192 88.4273 27.7831C90.186 27.0915 92.4055 26.8339 94.2789 26.683C96.4887 26.5052 98.7297 26.5774 100.925 26.8698C103.126 27.1375 105.313 27.63 107.406 28.3566C109.18 28.9723 111.262 29.7787 112.79 30.8883C113.752 31.5879 114.549 32.4585 114.801 33.65C114.901 34.1213 114.906 34.6009 114.854 35.0782ZM90.686 19.0306C91.2102 17.9367 92.4822 17.3704 93.6724 17.7565C94.9704 18.1732 95.6784 19.5626 95.2554 20.8514C95.0517 21.4706 94.6132 21.9847 94.0298 22.2781C93.4549 22.5707 92.7841 22.6262 92.1695 22.431C92.1415 22.6718 92.0901 22.9094 92.0138 23.1407C91.7142 24.0692 91.0502 24.8408 90.1764 25.2816C89.3021 25.7249 88.2836 25.8056 87.3508 25.5016C85.4102 24.8693 84.3501 22.793 84.9793 20.8603C85.6139 18.9269 87.7009 17.8721 89.6438 18.5011C90.0201 18.6224 90.3706 18.8011 90.686 19.0306ZM90.0483 12.2859C90.0548 11.7255 90.2853 11.188 90.6902 10.7965C91.5306 9.98139 92.8761 9.99845 93.6962 10.8329C94.516 11.6704 94.4986 13.0095 93.6594 13.8253C92.8196 14.6429 91.4742 14.6228 90.6535 13.7889C90.2582 13.3889 90.0407 12.8463 90.0483 12.2859ZM107.87 21.1481C108.428 21.0803 108.993 21.2393 109.435 21.5861C109.472 21.6148 109.507 21.6448 109.542 21.6758C109.645 21.3247 109.817 20.9876 110.058 20.6817C110.543 20.0642 111.257 19.6644 112.038 19.5727C112.82 19.4796 113.607 19.6992 114.225 20.185C115.513 21.1922 115.738 23.0485 114.726 24.3297C113.714 25.6126 111.849 25.8379 110.559 24.83C110.34 24.6582 110.151 24.4621 109.995 24.2489C109.937 24.3542 109.87 24.4566 109.792 24.5552C109.07 25.475 107.731 25.634 106.808 24.9139C105.886 24.1902 105.724 22.8595 106.451 21.9412C106.8 21.5012 107.311 21.2152 107.87 21.1481ZM121.017 17.1343C120.445 17.7997 119.632 18.2151 118.755 18.2856C116.927 18.4364 115.323 17.0799 115.175 15.2609C115.024 13.4421 116.389 11.8464 118.215 11.6973C120.039 11.5498 121.646 12.9066 121.796 14.7219C121.867 15.5931 121.585 16.4651 121.017 17.1343ZM107.303 14.7193C108.09 15.766 107.996 17.255 107.031 18.1939C105.981 19.2177 104.296 19.1963 103.271 18.1491C102.779 17.6462 102.506 16.9711 102.516 16.2703C102.523 15.5784 102.806 14.9132 103.3 14.4282C103.084 14.2815 102.881 14.113 102.697 13.925C101.957 13.1749 101.549 12.1589 101.564 11.11C101.576 10.0578 102.009 9.04974 102.767 8.31592C104.343 6.7892 106.864 6.82066 108.403 8.3851C109.939 9.95505 109.906 12.4646 108.332 13.9949C108.027 14.2923 107.68 14.5347 107.303 14.7193ZM102.119 19.9933C102.555 20.4541 102.794 21.0682 102.776 21.7005C102.741 23.0196 101.635 24.061 100.311 24.0251C98.9867 23.9902 97.9407 22.8885 97.9762 21.5713C98.0125 20.2536 99.1165 19.2109 100.44 19.247C101.076 19.2649 101.683 19.533 102.119 19.9933ZM100.026 12.6699C100.566 13.2384 100.858 13.9995 100.837 14.7809C100.793 16.4122 99.4273 17.6973 97.7895 17.6541C96.1508 17.6102 94.8587 16.2523 94.9028 14.6204C94.9467 12.9909 96.3113 11.7045 97.9497 11.7481C98.738 11.7691 99.4833 12.1009 100.026 12.6699ZM112.894 14.5491C113.283 14.9554 113.493 15.5001 113.477 16.0609C113.446 17.2285 112.469 18.1512 111.296 18.119C110.123 18.0879 109.197 17.1146 109.228 15.947C109.26 14.7794 110.238 13.8576 111.41 13.889C111.974 13.9038 112.51 14.1418 112.894 14.5491ZM116.443 25.0221C117.11 25.0156 117.752 25.273 118.227 25.7397C119.217 26.7055 119.233 28.2897 118.261 29.2739C117.289 30.2605 115.699 30.278 114.708 29.3104C113.717 28.3429 113.7 26.7585 114.673 25.7724C115.138 25.2974 115.777 25.0274 116.443 25.0221ZM116.407 61.5406C116.963 60.4706 117.439 59.3573 117.799 58.2065C118.19 56.9542 118.483 55.6685 118.713 54.3793C118.951 52.9625 119.08 51.5037 119.183 50.0711C119.312 48.2773 119.413 46.4808 119.49 44.6842C119.566 42.9354 119.623 41.1861 119.656 39.4366C119.681 38.1191 119.703 36.8009 119.703 35.4838V32.7959H134.575V61.5406H137.368V71.6277H132.062V66.3507H119.47V71.6277H114.164V61.5406H116.407ZM105.546 58.4495C105.394 59.6879 105.119 60.907 104.711 62.0871C104.245 63.4298 103.261 64.4862 102.127 65.3169C101.279 65.9173 100.335 66.3395 99.3281 66.598C98.2065 66.8865 97.0316 66.9076 95.8854 66.7683C94.739 66.6284 93.6075 66.3265 92.5878 65.7763C91.6732 65.2834 90.8591 64.6466 90.1801 63.8586C89.2832 62.7813 88.5848 61.5199 88.4588 60.1046C88.3479 58.8616 88.3779 57.6124 88.5302 56.3738L90.4424 40.8453C90.5943 39.6068 90.8691 38.3876 91.278 37.2081C91.7436 35.8654 92.7272 34.809 93.861 33.9777C94.7098 33.3773 95.654 32.9553 96.661 32.6962C97.7828 32.4083 98.9577 32.3866 100.103 32.5269C101.25 32.6665 102.381 32.968 103.401 33.5187C104.316 34.0117 105.13 34.6482 105.808 35.4361C106.706 36.5134 107.404 37.7752 107.531 39.1907C107.641 40.4335 107.611 41.6828 107.458 42.9201L105.546 58.4495ZM14.9614 48.5346V32.7959H20.268V66.3507H14.9614V53.3448H12.5012C12.0211 53.3448 11.5414 53.3271 11.0623 53.2971C10.516 53.2633 9.97465 53.1688 9.4449 53.029C8.87457 52.8787 8.32539 52.6634 7.80117 52.3946C7.22552 52.0995 6.72146 51.7003 6.28369 51.2333C5.85924 50.8111 5.51324 50.3289 5.25826 49.7884C5.01832 49.2792 4.82772 48.7496 4.69462 48.2032C4.56873 47.6862 4.47773 47.161 4.42763 46.6313C4.3825 46.1529 4.35547 45.6711 4.35547 45.1907V32.7959H9.66177V44.1537V45.0262C9.66177 45.3574 9.69567 45.6876 9.7526 46.0136C9.8107 46.3486 9.90686 46.6752 10.0413 46.9874C10.1685 47.2813 10.345 47.5431 10.5688 47.7662C11.005 48.1713 11.5275 48.3864 12.1249 48.4416C12.7533 48.5 13.3851 48.5346 14.0162 48.5346H14.9614ZM58.5793 38.5759C58.395 38.3494 58.0909 38.102 57.8676 37.9166C57.4659 37.5839 56.8493 37.5115 56.346 37.5115C55.8918 37.5115 55.3743 37.5708 54.9751 37.8024C54.6525 37.9897 54.3514 38.2172 54.1025 38.494C53.7703 38.9099 53.5542 39.3773 53.4807 39.9049C53.4039 40.4542 53.3652 41.0083 53.3652 41.5623V57.8199C53.3652 58.3215 53.386 58.824 53.4345 59.3243C53.4793 59.7848 53.6578 60.2008 53.9274 60.576L53.9324 60.5834L53.9369 60.591C54.1078 60.8621 54.4213 61.1059 54.6842 61.2837C55.0923 61.5604 55.6261 61.6351 56.1093 61.6351C56.5942 61.6351 57.0676 61.5524 57.5184 61.3725C57.9243 61.2108 58.2706 60.9649 58.5363 60.6123C58.6906 60.4208 58.8316 60.0664 58.9202 59.8382C59.1115 59.344 59.1381 58.6268 59.1381 58.1028V54.389H64.4446V58.2909C64.4446 59.6102 64.3079 61.1036 63.7563 62.3196C63.4177 63.0663 62.9593 63.94 62.3749 64.521C61.7464 65.186 60.8698 65.6959 60.0441 66.0875C58.8141 66.6704 57.3135 66.8223 55.9673 66.8223C54.6641 66.8223 53.2189 66.6514 52.0639 66.0081C51.223 65.5401 50.4099 64.9578 49.7831 64.2242C48.9935 63.2922 48.3967 62.2115 48.2496 60.9874C48.135 60.0322 48.0583 59.0645 48.0583 58.1028V40.9971C48.0583 39.8493 48.2102 38.7051 48.468 37.5875C48.773 36.2674 49.5464 35.1964 50.568 34.3292C51.3448 33.6234 52.2516 33.1254 53.2527 32.809C54.1903 32.513 55.1704 32.3243 56.1566 32.3243C57.2418 32.3243 58.3053 32.5272 59.3286 32.8822C60.3568 33.2392 61.2957 33.7738 62.087 34.5272C62.7709 35.2083 63.28 36.046 63.6634 36.9256C64.1141 37.9611 64.3023 39.0707 64.3023 40.1955V44.0929H59.1381V40.5726C59.1381 40.2226 59.0859 39.8719 59.0037 39.5318C58.9206 39.1885 58.782 38.8664 58.5793 38.5759ZM76.5136 37.7944V66.3507H71.2073V37.7944H65.3365V32.7959H82.3851V37.7944H76.5136ZM144.915 37.8493V46.2899H153.166V51.061H144.915V61.3508H154.4V66.4048H139.6V32.7959H154.258V37.8493H144.915ZM170.651 37.6056H166.106L166.062 41.9423C166.034 44.6836 166.003 47.4252 165.967 50.1661C165.939 52.2352 165.884 54.3111 165.754 56.3764C165.66 57.8624 165.5 59.4033 165.154 60.854C164.91 61.8809 164.536 62.9542 163.925 63.8284C163.533 64.3682 163.063 64.859 162.498 65.2213C162.019 65.5293 161.51 65.8605 160.971 66.0507C160.471 66.2272 159.954 66.3395 159.425 66.3733C158.735 66.4172 158.053 66.4139 157.367 66.3714V61.2338H157.774C158.309 61.2338 158.859 61.054 159.25 60.6826C159.423 60.5186 159.578 60.3353 159.72 60.1508C160.06 59.6712 160.28 59.144 160.355 58.5612C160.434 57.947 160.504 57.3319 160.566 56.7158C160.602 55.8674 160.652 55.0196 160.708 54.1724C160.789 52.9684 160.835 51.7598 160.874 50.5535C160.931 48.7574 160.965 46.9598 160.992 45.1626C161.031 42.5494 161.039 39.9346 161.039 37.3217V32.7959H175.958V66.3507H170.651V37.6056ZM186.375 46.1314H188.408C188.917 46.1314 189.424 46.1404 189.932 46.1552C190.504 46.1723 191.074 46.2405 191.635 46.3486C192.25 46.4677 192.849 46.6617 193.422 46.9087C194.08 47.1916 194.667 47.6068 195.186 48.0938C195.673 48.548 196.104 49.0645 196.425 49.6491C196.698 50.1461 196.923 50.673 197.066 51.2221C197.187 51.6884 197.271 52.1679 197.288 52.6492C197.301 53.0216 197.313 53.3951 197.313 53.7673V57.6314C197.313 58.506 197.232 59.3807 197.095 60.2437C196.931 61.2801 196.473 62.2455 195.892 63.11C195.636 63.513 195.318 63.8805 194.98 64.2177C194.56 64.6354 194.059 64.9754 193.54 65.2565C192.887 65.6093 192.158 65.8536 191.438 66.0358C190.504 66.2726 189.513 66.3507 188.551 66.3507H181.068V32.7959H186.375V46.1314ZM200.338 32.7959H205.646V66.3507H200.338V32.7959ZM129.268 37.6056H124.678V39.9131C124.678 42.3046 124.6 44.6958 124.513 47.086C124.467 48.3404 124.397 49.5936 124.3 50.8442C124.216 51.9114 124.113 52.9815 123.965 54.0427C123.775 55.3698 123.512 56.6865 123.178 57.9846C122.867 59.1926 122.476 60.3795 122.02 61.5406H129.268V37.6056ZM102.278 41.5768C102.337 41.1025 102.343 40.622 102.295 40.1466C102.244 39.65 102.006 39.2014 101.701 38.8134C101.474 38.5244 101.163 38.2913 100.85 38.1039C100.435 37.8566 99.9449 37.7334 99.4684 37.6755C98.9926 37.6172 98.4869 37.6191 98.0249 37.7591C97.6748 37.8653 97.3166 38.0171 97.0266 38.243C96.6362 38.5461 96.2966 38.9238 96.1278 39.394C95.9648 39.8449 95.8543 40.311 95.7957 40.786L93.7111 57.7178C93.6525 58.1926 93.6472 58.6732 93.6943 59.1485C93.7451 59.6452 93.9834 60.0932 94.2877 60.4821C94.515 60.7706 94.8251 61.0035 95.1397 61.1912C95.5542 61.4386 96.0442 61.5613 96.5203 61.6201C96.9963 61.678 97.5016 61.6757 97.964 61.5353C98.3134 61.4291 98.6725 61.2777 98.9621 61.0518C99.3525 60.7481 99.6927 60.371 99.8618 59.9007C100.024 59.4499 100.135 58.9838 100.193 58.5082L102.278 41.5768ZM186.375 50.9415V61.5406H188.219C188.586 61.5406 188.969 61.4889 189.33 61.427C189.776 61.3508 190.175 61.1441 190.53 60.8701C190.98 60.5215 191.312 60.0151 191.56 59.5095C191.929 58.7592 192.005 57.7467 192.005 56.9244V55.1338C192.005 54.4647 191.954 53.7588 191.778 53.1111C191.625 52.5462 191.282 52.0936 190.832 51.7256C190.157 51.1767 189.37 50.9415 188.503 50.9415H186.375ZM37.8782 46.1214H37.8519L30.6 66.3507H25.3781V32.7959H30.685V52.9851H30.7321L37.9636 32.7959H43.1851V66.3507H37.8782V46.1214Z" fill="#0091C9"/>
<path d="M27.2947 84.4583H26.4211V87.5004H24.6943V79.8519H26.4211V82.8938H27.1804L29.3059 79.8519H31.438L28.6601 83.5001L31.6736 87.5004H29.427L27.2947 84.4583ZM39.3105 79.8519V87.5004H37.5839V81.2427H35.4104L35.2678 83.9056C35.1777 85.1851 34.9299 86.1048 34.5256 86.6627C34.1201 87.2201 33.5015 87.5004 32.6675 87.5004H32.1335L32.1259 86.0667L32.4825 86.0302C32.8607 85.9798 33.1375 85.7501 33.3103 85.342C33.4819 84.9339 33.5936 84.1931 33.6394 83.1135L33.7831 79.8519H39.3105ZM46.1067 79.8519H47.826V87.5004H46.1067V82.3972L43.0934 87.5004H41.3743V79.8519H43.0934V84.9563L46.1067 79.8519ZM56.3329 87.5004H54.6052V84.4154H51.6125V87.5004H49.8877V79.8519H51.6125V83.0388H54.6052V79.8519H56.3329V87.5004ZM63.1262 79.8519H64.8454V87.5004H63.1262V82.3972L60.1128 87.5004H58.3936V79.8519H60.1128V84.9563L63.1262 79.8519ZM73.3523 87.5004H71.6246V84.4154H68.6319V87.5004H66.907V79.8519H68.6319V83.0388H71.6246V79.8519H73.3523V87.5004ZM80.4658 81.2427H77.1256V87.5004H75.4055V79.8519H80.4658V81.2427ZM81.1301 83.6067C81.1301 82.8557 81.2804 82.1795 81.5788 81.5781C81.8772 80.9775 82.2966 80.516 82.837 80.193C83.3758 79.8689 83.997 79.7072 84.698 79.7072C85.736 79.7072 86.5777 80.0408 87.2253 80.7049C87.8707 81.3706 88.2199 82.2524 88.2734 83.3506L88.281 83.7532C88.281 84.5089 88.1355 85.1832 87.8436 85.7763C87.551 86.3703 87.1359 86.8318 86.5926 87.1576C86.0495 87.4835 85.4233 87.6452 84.7121 87.6452C83.6282 87.6452 82.7601 87.2855 82.107 86.5664C81.4566 85.8463 81.1301 84.8881 81.1301 83.6907V83.6067ZM82.8567 83.7513C82.8567 84.5377 83.0218 85.1543 83.3494 85.6006C83.6742 86.0471 84.1301 86.2694 84.7121 86.2694C85.2948 86.2694 85.7482 86.0423 86.0728 85.5903C86.3984 85.1364 86.5607 84.4752 86.5607 83.601C86.5607 82.8285 86.3937 82.2161 86.0588 81.762C85.7265 81.31 85.2723 81.0841 84.698 81.0841C84.1348 81.0841 83.6862 81.3055 83.3561 81.7527C83.0238 82.1992 82.8567 82.8633 82.8567 83.7513ZM90.0311 87.5004V79.8519H93.1534C94.2036 79.8519 95.0039 80.0361 95.5546 80.4003C96.1027 80.7645 96.3796 81.2885 96.3796 81.9722C96.3796 82.3242 96.2681 82.6429 96.0464 82.9229C95.8288 83.2032 95.5012 83.4179 95.0714 83.5701C95.5735 83.6711 95.9714 83.8811 96.2652 84.1978C96.5588 84.5146 96.7043 84.8862 96.7043 85.3158C96.7043 86.0273 96.4426 86.5683 95.9134 86.9427C95.3849 87.3144 94.6257 87.5004 93.6356 87.5004H90.0311ZM91.7578 84.2408V86.1387H93.6507C94.5356 86.1387 94.9794 85.8229 94.9794 85.1927C94.9794 84.5573 94.5281 84.2408 93.6282 84.2408H91.7578ZM91.7578 83.0098H93.1795C94.1622 83.0098 94.652 82.7232 94.652 82.1479C94.652 81.5445 94.1866 81.2334 93.2574 81.2139H91.7578V83.0098ZM102.945 87.5004C102.867 87.3554 102.802 87.1193 102.746 86.7877C102.195 87.3602 101.523 87.6452 100.728 87.6452C99.9541 87.6452 99.3262 87.4257 98.8356 86.9857C98.3484 86.5466 98.1054 86.0032 98.1054 85.3568C98.1054 84.5406 98.4095 83.913 99.0175 83.476C99.6267 83.0388 100.497 82.822 101.63 82.822H102.688V82.3197C102.688 81.9237 102.576 81.607 102.356 81.3689C102.132 81.1297 101.793 81.0111 101.339 81.0111C100.946 81.0111 100.623 81.1101 100.372 81.3055C100.121 81.5013 99.9954 81.7499 99.9954 82.0516H98.2686C98.2686 81.6311 98.4095 81.2408 98.6882 80.8759C98.967 80.5116 99.348 80.2238 99.8283 80.0191C100.308 79.8109 100.847 79.7072 101.439 79.7072C102.339 79.7072 103.057 79.9323 103.591 80.3834C104.126 80.8327 104.4 81.465 104.416 82.2813V85.7332C104.416 86.4216 104.512 86.969 104.706 87.3798V87.5004H102.945ZM101.046 86.2694C101.388 86.2694 101.708 86.1871 102.008 86.0199C102.31 85.8567 102.538 85.6344 102.688 85.354V83.9083H101.757C101.119 83.9083 100.638 84.0194 100.316 84.2408C99.9925 84.4631 99.8303 84.7769 99.8303 85.1851C99.8303 85.5157 99.9419 85.7792 100.162 85.9743C100.384 86.1702 100.677 86.2694 101.046 86.2694ZM112.539 79.8519V87.5004H110.82V84.6899H109.207L107.565 87.5004H105.774L107.586 84.408C107.114 84.21 106.749 83.9271 106.495 83.5609C106.243 83.191 106.117 82.7707 106.117 82.2954C106.117 81.5855 106.391 81.0018 106.944 80.5479C107.494 80.094 108.242 79.8622 109.178 79.8519H112.539ZM107.844 82.3364C107.844 82.655 107.963 82.9155 108.203 83.1162C108.44 83.3162 108.748 83.415 109.122 83.415H110.82V81.2139H109.229C108.806 81.2139 108.47 81.3203 108.22 81.5323C107.967 81.7425 107.844 82.0104 107.844 82.3364ZM120.966 84.4583H120.092V87.5004H118.365V79.8519H120.092V82.8938H120.851L122.977 79.8519H125.109L122.331 83.5001L125.344 87.5004H123.098L120.966 84.4583ZM125.717 83.6067C125.717 82.8557 125.867 82.1795 126.166 81.5781C126.464 80.9775 126.884 80.516 127.424 80.193C127.963 79.8689 128.584 79.7072 129.285 79.7072C130.323 79.7072 131.165 80.0408 131.812 80.7049C132.458 81.3706 132.807 82.2524 132.86 83.3506L132.868 83.7532C132.868 84.5089 132.723 85.1832 132.431 85.7763C132.138 86.3703 131.723 86.8318 131.18 87.1576C130.636 87.4835 130.01 87.6452 129.299 87.6452C128.215 87.6452 127.347 87.2855 126.694 86.5664C126.044 85.8463 125.717 84.8881 125.717 83.6907V83.6067ZM127.444 83.7513C127.444 84.5377 127.609 85.1543 127.936 85.6006C128.261 86.0471 128.717 86.2694 129.299 86.2694C129.882 86.2694 130.335 86.0423 130.66 85.5903C130.985 85.1364 131.148 84.4752 131.148 83.601C131.148 82.8285 130.981 82.2161 130.646 81.762C130.313 81.31 129.859 81.0841 129.285 81.0841C128.722 81.0841 128.273 81.3055 127.943 81.7527C127.611 82.1992 127.444 82.8633 127.444 83.7513ZM139.052 85.3878L141.328 79.8519H143.486V87.5004H141.76V82.4401L139.641 87.5004H138.47L136.345 82.4111V87.5004H134.618V79.8519H136.791L139.052 85.3878ZM152.101 87.5004H150.374V81.2427H147.374V87.5004H145.649V79.8519H152.101V87.5004ZM158.689 87.5004C158.611 87.3554 158.546 87.1193 158.49 86.7877C157.939 87.3602 157.267 87.6452 156.472 87.6452C155.698 87.6452 155.07 87.4257 154.58 86.9857C154.093 86.5466 153.85 86.0032 153.85 85.3568C153.85 84.5406 154.154 83.913 154.762 83.476C155.371 83.0388 156.242 82.822 157.374 82.822H158.432V82.3197C158.432 81.9237 158.32 81.607 158.1 81.3689C157.876 81.1297 157.537 81.0111 157.083 81.0111C156.69 81.0111 156.367 81.1101 156.116 81.3055C155.865 81.5013 155.74 81.7499 155.74 82.0516H154.013C154.013 81.6311 154.154 81.2408 154.432 80.8759C154.711 80.5116 155.092 80.2238 155.572 80.0191C156.052 79.8109 156.591 79.7072 157.183 79.7072C158.083 79.7072 158.801 79.9323 159.335 80.3834C159.87 80.8327 160.145 81.465 160.159 82.2813V85.7332C160.159 86.4216 160.256 86.969 160.451 87.3798V87.5004H158.689ZM156.79 86.2694C157.132 86.2694 157.452 86.1871 157.752 86.0199C158.054 85.8567 158.282 85.6344 158.432 85.354V83.9083H157.501C156.863 83.9083 156.382 84.0194 156.059 84.2408C155.737 84.4631 155.574 84.7769 155.574 85.1851C155.574 85.5157 155.686 85.7792 155.906 85.9743C156.128 86.1702 156.421 86.2694 156.79 86.2694ZM168.638 87.5004H166.911V84.4154H163.918V87.5004H162.193V79.8519H163.918V83.0388H166.911V79.8519H168.638V87.5004ZM175.432 79.8519H177.151V87.5004H175.432V82.3972L172.418 87.5004H170.699V79.8519H172.418V84.9563L175.432 79.8519ZM185.303 79.8519V87.5004H183.584V84.6899H181.971L180.328 87.5004H178.538L180.35 84.408C179.877 84.21 179.513 83.9271 179.259 83.5609C179.006 83.191 178.88 82.7707 178.88 82.2954C178.88 81.5855 179.154 81.0018 179.707 80.5479C180.258 80.094 181.005 79.8622 181.942 79.8519H185.303ZM180.607 82.3364C180.607 82.655 180.726 82.9155 180.967 83.1162C181.204 83.3162 181.512 83.415 181.885 83.415H183.584V81.2139H181.992C181.57 81.2139 181.233 81.3203 180.983 81.5323C180.731 81.7425 180.607 82.0104 180.607 82.3364Z" fill="#0091C9"/>
</svg>
