<svg width="35" height="35" viewBox="0 0 35 35" fill="none" xmlns="http://www.w3.org/2000/svg">
<path d="M31.0383 12.0689L22.3601 10.8076L18.4807 2.94288C18.3748 2.72755 18.2004 2.55324 17.9851 2.44728C17.4451 2.18068 16.7888 2.40284 16.5188 2.94288L12.6394 10.8076L3.96118 12.0689C3.72192 12.103 3.50317 12.2158 3.33569 12.3867C3.13321 12.5948 3.02164 12.8748 3.02549 13.1651C3.02933 13.4555 3.14828 13.7324 3.3562 13.9351L9.635 20.0567L8.15161 28.7007C8.11682 28.9018 8.13907 29.1086 8.21584 29.2977C8.2926 29.4867 8.42081 29.6505 8.58592 29.7704C8.75104 29.8904 8.94644 29.9616 9.14999 29.9761C9.35354 29.9906 9.55709 29.9478 9.73754 29.8526L17.4998 25.7715L25.262 29.8526C25.4739 29.9653 25.72 30.0029 25.9558 29.9619C26.5505 29.8594 26.9504 29.2954 26.8479 28.7007L25.3645 20.0567L31.6433 13.9351C31.8142 13.7676 31.927 13.5488 31.9612 13.3096C32.0535 12.7114 31.6365 12.1577 31.0383 12.0689Z" fill="url(#paint0_linear_325_126)"/>
<defs>
<linearGradient id="paint0_linear_325_126" x1="17.4997" y1="2.33447" x2="17.4997" y2="29.9789" gradientUnits="userSpaceOnUse">
<stop stop-color="#FD8B20"/>
<stop offset="1" stop-color="#EF286F"/>
</linearGradient>
</defs>
</svg>
