<svg width="29" height="29" viewBox="0 0 29 29" fill="none" xmlns="http://www.w3.org/2000/svg">
<g clip-path="url(#clip0_321_348)">
<path fill-rule="evenodd" clip-rule="evenodd" d="M0.517578 14.5C0.517578 12.6638 0.879237 10.8457 1.58191 9.14927C2.28457 7.45287 3.31449 5.91149 4.61285 4.61313C5.91121 3.31477 7.45259 2.28485 9.14899 1.58218C10.8454 0.879515 12.6636 0.517857 14.4997 0.517857C16.3359 0.517857 18.1541 0.879515 19.8505 1.58218C21.5468 2.28485 23.0882 3.31477 24.3866 4.61313C25.685 5.91149 26.7149 7.45287 27.4175 9.14927C28.1202 10.8457 28.4819 12.6638 28.4819 14.5C28.4819 18.2083 27.0087 21.7647 24.3866 24.3869C21.7644 27.009 18.208 28.4821 14.4997 28.4821C10.7914 28.4821 7.23501 27.009 4.61285 24.3869C1.99069 21.7647 0.517578 18.2083 0.517578 14.5ZM19.1646 22.9183L21.3292 6.48771L4.41601 14.6388L9.42265 16.4534L14.9865 12.1531C15.0942 12.07 15.2173 12.0089 15.3486 11.9733C15.4799 11.9378 15.617 11.9284 15.7519 11.9459C15.8868 11.9633 16.017 12.0071 16.135 12.0748C16.253 12.1425 16.3565 12.2328 16.4396 12.3405C16.5227 12.4483 16.5838 12.5713 16.6193 12.7026C16.6549 12.8339 16.6642 12.971 16.6468 13.1059C16.6294 13.2408 16.5856 13.371 16.5179 13.489C16.4502 13.607 16.3599 13.7105 16.2521 13.7936L11.637 17.3586V23.0053L15.1274 19.6827L19.1646 22.9183Z" fill="#0091C9"/>
</g>
<defs>
<clipPath id="clip0_321_348">
<rect width="29" height="29" fill="white"/>
</clipPath>
</defs>
</svg>
