<svg width="29" height="29" viewBox="0 0 29 29" fill="none" xmlns="http://www.w3.org/2000/svg">
<g clip-path="url(#clip0_290_299)">
<path d="M15.1123 0C21.6675 0 24.9631 0.000332922 26.9814 2.03613C28.9998 4.07194 29 7.35001 29 13.8877V15.1123C29 21.6512 29.0172 24.9281 26.9814 26.9639C24.9456 28.9997 21.6675 29 15.1123 29H13.9053C7.34896 29 4.07194 28.9997 2.03613 26.9639C0.000340052 24.9281 0 21.6513 0 15.1123V13.8877C0 7.34761 0.000340052 4.07194 2.03613 2.03613C4.07194 0.000340053 7.34896 0 13.9053 0H15.1123ZM4.90039 8.83301C5.05468 16.3718 9.02357 20.9092 15.5625 20.9092H15.9414V16.5957C18.3217 16.837 20.0992 18.6147 20.8242 20.9092H24.2568C23.3254 17.4769 20.9102 15.5786 19.4092 14.8535C20.9101 13.9567 23.0313 11.7827 23.5312 8.83301H20.4102C19.7537 11.2307 17.8043 13.4048 15.9414 13.6113V8.83301H12.7666V17.2002C10.8352 16.7211 8.31613 14.3707 8.21289 8.83301H4.90039Z" fill="#0091C9"/>
</g>
<defs>
<clipPath id="clip0_290_299">
<rect width="29" height="29" fill="white"/>
</clipPath>
</defs>
</svg>
