<svg width="29" height="29" viewBox="0 0 29 29" fill="none" xmlns="http://www.w3.org/2000/svg">
<g clip-path="url(#clip0_290_300)">
<path d="M29 14.1269C29 21.9285 22.6264 28.2529 14.7624 28.2529C12.2669 28.2529 9.92262 27.6146 7.88193 26.4969L0 29L2.56931 21.4188C1.27378 19.2911 0.527668 16.7927 0.527668 14.126C0.528614 6.32445 6.90035 0 14.7643 0C22.6273 0.00189128 29 6.3254 29 14.1269ZM14.7615 2.25252C8.16183 2.25252 2.79343 7.58027 2.79343 14.1298C2.79343 16.7284 3.64072 19.1341 5.07337 21.0916L3.57925 25.5011L8.17697 24.0401C10.0682 25.2808 12.3312 26.0033 14.7615 26.0033C21.3611 26.0033 26.7314 20.6765 26.7314 14.1269C26.7333 7.58027 21.362 2.25252 14.7615 2.25252ZM21.9521 17.3809C21.8632 17.2381 21.6306 17.1511 21.2826 16.9771C20.9356 16.8031 19.2173 15.9662 18.8987 15.8527C18.5771 15.7364 18.3445 15.6778 18.1119 16.0248C17.8821 16.3719 17.2126 17.1511 17.0074 17.3837C16.8041 17.6154 16.6007 17.6447 16.2518 17.4736C15.9029 17.2977 14.7775 16.9346 13.4442 15.7553C12.4068 14.8362 11.7061 13.7042 11.5037 13.3572C11.2985 13.0111 11.4829 12.8238 11.656 12.6517C11.812 12.4957 12.0049 12.247 12.1799 12.0437C12.3548 11.8423 12.4125 11.6995 12.5288 11.4678C12.6432 11.2361 12.5855 11.0347 12.4995 10.8598C12.4125 10.6858 11.7156 8.9836 11.4234 8.29044C11.133 7.59823 10.8427 7.71266 10.6385 7.71266C10.4352 7.71266 10.2025 7.68429 9.9699 7.68429C9.73727 7.68429 9.35902 7.76845 9.04034 8.1155C8.72166 8.46255 7.81951 9.29944 7.81951 11.0035C7.81951 12.7094 9.06871 14.3539 9.24365 14.5846C9.41954 14.8144 11.6588 18.4258 15.2059 19.8121C18.7549 21.1975 18.7549 20.7351 19.3942 20.6765C20.0353 20.6178 21.4595 19.8396 21.7488 19.032C22.0401 18.2206 22.0401 17.5256 21.9521 17.3809Z" fill="#0091C9"/>
</g>
<defs>
<clipPath id="clip0_290_300">
<rect width="29" height="29" fill="white"/>
</clipPath>
</defs>
</svg>
